<?xml version="1.0" standalone="no"?> <!DOCTYPE svg PUBLIC "-//W3C//DTD SVG 1.0//EN" "http://www.w3.org/TR/2001/REC-SVG-20010904/DTD/svg10.dtd" > <svg xmlns="http://www.w3.org/2000/svg" width="100%" height="100%">
<defs >
<font id="calluna-boldit" horiz-adv-x="502" ><font-face
    font-family="Calluna"
    units-per-em="1000"
    panose-1="0 0 8 0 0 0 0 0 0 0"
    ascent="750"
    descent="-250"
    alphabetic="0" />
<missing-glyph horiz-adv-x="690" d="M45 -53V720H645V-53H45ZM120 147L160 106L345 292L530 106L570 147L385 332L570 518L531 559L345 372L159 559L120 518L305 332L120 147Z" />
<glyph unicode=" " glyph-name="space" horiz-adv-x="217" />
<glyph unicode="!" glyph-name="exclam" horiz-adv-x="279" d="M101 205L136 659Q176 667 217 677T280 694L302 700L306 692Q284 655 258 574L142 205H101ZM20 43Q20 82 43 112T109 143Q137 143 151 128T166 89Q166 51 143 20T75 -12Q47 -12 34 3T20 43Z" />
<glyph unicode="&quot;" glyph-name="quotedbl" horiz-adv-x="361" d="M244 401L297 667H404L397 630L310 401H244ZM73 401L126 667H233L226 630L139 401H73Z" />
<glyph unicode="#" glyph-name="numbersign" horiz-adv-x="632" d="M53 318L67 378H200L256 578H319L264 378H415L471 578H534L479 378H623L609 318H463L425 182H570L556 122H409L351 -89H287L345 122H194L136 -89H72L130 122H0L14 182H146L184 318H53ZM248 318L210
182H361L399 318H248Z" />
<glyph unicode="$" glyph-name="dollar" horiz-adv-x="424" d="M-9 77Q-9 94 1 120T21 166L31 184H66Q61 153 61 137Q61 101 81 74T141 40L182 227Q151 247 135 259T96 291T63 336T52 388Q52 453 108 503T256 559L275 646H321L301 559Q324 558 426 543L385 394H350Q357
436 344 469T291 511L252 336Q292 310 315 292T359 239T381 164Q381 90 322 45T176 -6L158 -89H112L130 -6Q73 -1 32 20T-9 77ZM277 120Q277 158 222 199L187 41Q225 47 251 68T277 120ZM155 438Q155 402 212 362L245 512Q207 507 181 487T155 438Z" />
<glyph unicode="%" glyph-name="percent" horiz-adv-x="736" d="M62 0L645 678L684 644L131 0H62ZM206 351Q145 351 110 386T74 480Q74 551 127 609T250 667Q310 667 347 631T384 536Q384 464 329 408T206 351ZM211 416Q248 416 278 450T309 528Q309 559 292 580T248
601Q210 601 180 567T149 489Q149 458 166 437T211 416ZM375 117Q375 188 428 246T551 304Q611 304 648 268T685 173Q685 101 630 45T507 -12Q446 -12 411 23T375 117ZM450 126Q450 95 467 74T512 53Q549 53 579 87T610 165Q610 196 593 217T549 238Q511 238 481
204T450 126Z" />
<glyph unicode="&amp;" glyph-name="ampersand" horiz-adv-x="626" d="M1 133Q1 197 44 242T170 338Q139 419 139 483Q139 564 190 621T346 679Q414 679 453 652T493 572Q493 538 477 507T429 447T370 399T300 354Q344 253 426 140Q540 238 540 344Q540 403 482
414V444Q502 455 544 455Q579 455 597 442T615 387Q615 322 570 245T451 106Q526 8 573 -25L558 -49Q462 -27 372 48Q271 -12 175 -12Q103 -12 52 26T1 133ZM177 48T225 48T337 81Q243 175 187 295Q158 269 138 231T118 158Q118 103 147 76ZM261 511Q261 461 283
398Q331 435 357 475T384 572Q384 600 374 618T342 637Q307 637 284 599T261 511Z" />
<glyph unicode="&apos;" glyph-name="quotesingle" horiz-adv-x="190" d="M73 401L126 667H233L226 630L139 401H73Z" />
<glyph unicode="(" glyph-name="parenleft" horiz-adv-x="299" d="M28 220Q28 302 50 381T103 514T166 612T220 676L242 696L281 679Q275 671 265 656T228 591T181 489T145 359T128 205Q128 105 154 13T206 -122L231 -165L190 -186Q183 -180 173 -168T134 -116T85
-31T46 81T28 220Z" />
<glyph unicode=")" glyph-name="parenright" horiz-adv-x="280" d="M-22 -165Q-15 -157 -4 -142T38 -75T91 32T132 171T151 339Q151 428 132 512T93 635L74 674L116 696Q121 690 130 679T163 631T204 554T236 450T251 321Q251 258 238 196T204 85T158 -8T108 -84T61
-139T27 -174L14 -186L-22 -165Z" />
<glyph unicode="*" glyph-name="asterisk" horiz-adv-x="508" d="M292 512Q283 522 277 538L232 655Q227 670 248 679T292 688T335 679T352 655L307 538Q304 530 301 524T294 514L292 512ZM105 513Q94 515 93 528T95 555T107 581Q118 601 136 614T165 616L244
519Q249 513 253 507T258 496L259 493Q246 490 229 493L105 513ZM325 493Q328 505 340 519L419 616Q429 628 447 615T477 581Q484 569 488 555T491 528T478 513L355 493H325ZM419 332L340 429Q335 435 332 441T326 452L325 455Q337 458 355 455L479 435Q490 433
491 420T489 393T477 367Q466 347 448 334T419 332ZM165 332Q155 320 137 333T107 367Q100 379 96 393T93 420T106 435L229 455H259Q255 442 244 429L165 332ZM232 293L277 410L292 436Q301 427 307 410L352 293Q357 278 336 269T292 260T249 269T232 293Z" />
<glyph unicode="+" glyph-name="plus" horiz-adv-x="520" d="M28 220V291H221V498H296V291H486V220H296V0H221V220H28Z" />
<glyph unicode="," glyph-name="comma" horiz-adv-x="224" d="M-3 50L7 101L112 153Q143 108 143 59Q143 -4 95 -62T-28 -166L-53 -128Q50 -60 50 -15Q50 1 37 17T10 42L-3 50Z" />
<glyph unicode="-" glyph-name="hyphen" horiz-adv-x="374" d="M49 215V295H315V215H49Z" />
<glyph unicode="." glyph-name="period" horiz-adv-x="229" d="M3 43Q3 82 26 112T92 143Q120 143 134 128T149 89Q149 51 126 20T58 -12Q30 -12 17 3T3 43Z" />
<glyph unicode="/" glyph-name="slash" horiz-adv-x="293" d="M-8 -196H-87L290 667H369L-8 -196Z" />
<glyph unicode="0" glyph-name="zero" horiz-adv-x="552" d="M37 187Q36 260 67 327T162 441T308 487Q399 487 450 433T503 294Q505 222 473 153T376 36T230 -12Q140 -12 90 43T37 187ZM157 177Q157 123 175 87T233 50Q291 50 336 128T382 299Q382 354 363 389T305
425Q244 425 201 347T157 177Z" />
<glyph unicode="1" glyph-name="one" horiz-adv-x="369" d="M-3 -5V34Q40 34 59 48T85 98L146 377Q153 412 139 424T79 436V475H363L359 438L277 427L205 98L189 45L280 35L277 0L-3 -5Z" />
<glyph unicode="2" glyph-name="two" horiz-adv-x="463" d="M-9 0L-10 36Q41 71 138 151Q204 206 233 245T262 327Q262 366 243 385T191 404Q165 404 140 396T101 378L88 370L69 399Q72 403 77 408T102 429T141 456T192 477T254 487Q311 487 349 458T387 377Q387
342 370 308T311 235T239 170T143 96H261Q289 96 311 110T344 140T369 183H413L343 0H-9Z" />
<glyph unicode="3" glyph-name="three" horiz-adv-x="389" d="M-77 -156Q-21 -155 35 -132T133 -61T174 46Q174 136 66 136L45 134V187Q105 197 164 246T224 354Q224 411 165 411Q142 411 115 401T70 380L54 370L36 400Q45 410 60 424T123 463T219 487Q275 487
313 459T352 380Q352 345 333 313T282 257T222 216T161 185Q228 178 266 144T305 56Q305 -10 251 -70T116 -164T-41 -198L-77 -196V-156Z" />
<glyph unicode="4" glyph-name="four" horiz-adv-x="523" d="M-25 30V64L327 470L435 489L436 486Q420 443 404 372L346 109H473L442 30H329L315 -33Q294 -123 291 -187L168 -196Q169 -151 190 -55L209 30H-25ZM79 109H227L266 287Q270 310 285 353L79 109Z" />
<glyph unicode="5" glyph-name="five" horiz-adv-x="397" d="M-60 -156Q35 -156 116 -99T198 31Q198 64 179 90T133 129T79 152T33 164L14 166L97 475H314L381 481L356 381H125L95 271Q100 270 108 269T139 260T183 244T230 217T275 180T306 129T319 63Q319 -11
268 -72T137 -165T-27 -197L-60 -196V-156Z" />
<glyph unicode="6" glyph-name="six" horiz-adv-x="508" d="M38 207Q38 283 67 363T151 515T297 633T499 679V641Q413 631 347 585T243 470T187 327T168 176Q168 30 232 30Q266 30 293 70T334 162T348 259Q348 307 331 339T283 372L270 370V409Q293 425 332 425Q400
425 437 381T474 270Q474 208 444 145T354 35T220 -12Q134 -12 86 49T38 207Z" />
<glyph unicode="7" glyph-name="seven" horiz-adv-x="460" d="M48 -85Q121 -2 276 238L354 360Q316 356 294 356H171Q128 356 111 345T66 289H26L88 475H420L486 479V452Q442 404 421 371L115 -109Q91 -147 81 -161T57 -187T29 -199Q10 -199 0 -187T-8 -158Q-7
-151 -3 -144T6 -131T24 -111T48 -85Z" />
<glyph unicode="8" glyph-name="eight" horiz-adv-x="499" d="M17 131Q17 194 63 246T191 347Q116 435 116 504Q116 583 176 631T323 679Q398 679 445 644T493 551Q493 498 452 458T334 373Q366 337 384 315T418 257T435 186Q435 102 365 45T199 -12Q124 -12 71
25T17 131ZM125 138Q125 30 206 30Q253 30 282 66T311 153Q311 181 297 210T268 260T224 311Q126 236 125 138ZM240 534Q240 480 303 408Q385 466 385 544Q385 586 367 611T317 637Q282 637 261 605T240 534Z" />
<glyph unicode="9" glyph-name="nine" horiz-adv-x="517" d="M11 -161Q80 -153 137 -121T231 -43T293 63T330 181T341 300Q341 446 277 446Q230 446 198 369T166 217Q166 171 182 140T226 109L239 111V72Q216 56 177 56Q112 56 76 99T40 206Q40 268 69 331T158
441T289 488Q375 488 423 427T471 269Q471 194 442 114T358 -37T212 -153T11 -199V-161Z" />
<glyph unicode=":" glyph-name="colon" horiz-adv-x="257" d="M14 43Q14 82 37 112T103 143Q131 143 145 128T160 89Q160 51 137 20T69 -12Q41 -12 28 3T14 43ZM80 367Q80 406 103 436T169 467Q197 467 211 452T226 413Q226 375 203 344T135 312Q107 312 94 327T80 367Z" />
<glyph unicode=";" glyph-name="semicolon" horiz-adv-x="256" d="M71 367Q71 406 94 436T160 467Q188 467 202 452T217 413Q217 375 194 344T126 312Q98 312 85 327T71 367ZM20 50L30 101L135 153Q166 108 166 59Q166 -4 118 -62T-5 -166L-30 -128Q73 -60 73
-15Q73 1 60 17T33 42L20 50Z" />
<glyph unicode="&lt;" glyph-name="less" horiz-adv-x="520" d="M14 231V277L440 506L460 433L113 254L460 65L440 -7L14 231Z" />
<glyph unicode="=" glyph-name="equal" horiz-adv-x="520" d="M35 303V373H473V303H35ZM35 128V198H473V128H35Z" />
<glyph unicode="&gt;" glyph-name="greater" horiz-adv-x="520" d="M76 -7L56 65L403 254L56 433L76 506L502 277V231L76 -7Z" />
<glyph unicode="?" glyph-name="question" horiz-adv-x="355" d="M114 201Q101 220 101 246T116 299T152 350T195 394T231 437T246 476Q246 504 210 533T138 576L103 591L157 707Q167 703 182 697T238 669T309 625T365 572T391 512Q391 477 353 434T269 358T185
288T147 226Q147 218 150 206L114 201ZM22 45Q22 82 45 112T111 143Q168 143 168 87Q168 52 144 20T78 -12Q22 -12 22 45Z" />
<glyph unicode="@" glyph-name="at" horiz-adv-x="820" d="M4 155Q4 271 69 374T241 539T469 600Q611 600 702 516T793 296Q793 196 742 124T604 19Q570 6 535 1T453 -6T380 -13L375 -9Q375 -7 376 -2T382 16T389 45L395 77Q363 32 334 10T270 -12Q226 -12 199
21T172 117Q172 241 270 347T499 454Q517 454 541 452T580 448L595 445Q579 403 570 357L528 143Q519 98 519 79Q519 45 552 45Q600 45 646 114T692 282Q692 397 628 473T447 549Q301 549 204 436T106 163Q106 35 171 -42T332 -125L322 -170Q181 -164 93 -73T4
155ZM304 140Q304 73 334 73Q345 73 360 81T386 98L397 106L457 409Q399 406 352 321T304 140Z" />
<glyph unicode="A" glyph-name="A" horiz-adv-x="587" d="M-60 0V34Q-16 39 6 79L343 664L399 673L496 110Q505 61 513 49T547 33L544 0H494L331 -4V33Q352 34 364 44T373 75L352 205H151L135 195L51 45L125 33L122 0H-60ZM312 452Q311 459 310 467T308 485T306
501L170 258H343L312 452Z" />
<glyph unicode="B" glyph-name="B" horiz-adv-x="600" d="M4 -3V34Q32 38 52 53T77 91L170 558Q182 596 175 611T114 637V667H344Q461 667 516 631T571 535Q571 476 528 431T412 357Q434 351 454 342T498 317T536 274T551 212Q551 120 471 60T257 0H184L4 -3ZM195
50H233Q283 50 320 64T376 100T404 147T413 198Q413 319 278 319H264L250 307L211 108L195 50ZM262 369H328Q365 371 398 417T432 518Q432 559 412 588T344 617H323L308 604L262 369Z" />
<glyph unicode="C" glyph-name="C" horiz-adv-x="641" d="M42 278Q42 380 96 471T248 621T466 679Q508 679 583 669T667 657L623 494H584Q585 504 585 512Q585 572 555 601T460 630Q373 630 305 582T204 462T170 311Q170 197 234 136T398 74Q438 74 480 85T545
108L567 119L580 92Q576 88 569 81T538 56T487 24T416 -1T327 -12Q192 -12 117 73T42 278Z" />
<glyph unicode="D" glyph-name="D" horiz-adv-x="724" d="M4 -3V34Q32 38 52 53T77 91L170 558Q182 596 175 611T114 637V667H362Q432 667 491 653T599 607T676 520T704 388Q704 218 576 109T243 0H145L4 -3ZM195 50H248Q328 50 390 77T489 152T546 258T565 383Q565
495 512 556T359 617H322L309 605L211 108L195 50Z" />
<glyph unicode="E" glyph-name="E" horiz-adv-x="574" d="M4 -3V34Q68 44 78 95L170 558Q182 596 175 611T114 637V667H520L594 671L546 494H507Q522 562 503 589T425 617H324L309 605L262 364H421L439 428H481L443 239H393L408 314H264L249 302L211 108L195 50H325Q382
50 409 71T484 170H523L462 0H167L4 -3Z" />
<glyph unicode="F" glyph-name="F" horiz-adv-x="534" d="M4 -3V34Q68 44 78 95L170 558Q182 596 175 611T114 637V667H520L594 671L545 494H506Q521 563 502 590T425 617H324L309 605L261 360H420L438 424H480L442 235H392L407 310H263L248 298L210 104L194 45L298
36L294 3L4 -3Z" />
<glyph unicode="G" glyph-name="G" horiz-adv-x="689" d="M43 274Q43 348 70 419T149 548T283 643T469 679Q519 679 602 668T688 657L644 494H605Q606 507 606 519Q606 575 574 602T459 630Q334 630 258 530T182 293Q182 178 232 111T377 43Q412 43 462 56L488
183Q495 220 483 234T426 256V286H664L667 272Q662 270 655 265T633 236T611 177L578 14Q564 13 481 1T357 -12Q219 -12 131 63T43 274Z" />
<glyph unicode="H" glyph-name="H" horiz-adv-x="787" d="M4 -3V34Q68 44 78 95L172 567Q181 602 174 614T122 637V667H196L349 671L353 667Q314 629 298 546L262 366H556L570 379L608 567Q617 602 610 614T558 637V667H632L785 671L789 667Q750 629 734 546L646
104L630 45L709 36L705 3L440 -3V34Q504 44 514 95L557 313H264L249 299L210 104L194 45L273 36L269 3L4 -3Z" />
<glyph unicode="I" glyph-name="I" horiz-adv-x="351" d="M4 -3V34Q68 44 78 95L172 567Q181 602 174 614T122 637V667H196L349 671L353 667Q314 629 298 546L210 104L194 45L273 36L269 3L4 -3Z" />
<glyph unicode="J" glyph-name="J" horiz-adv-x="322" d="M58 55L160 567Q169 602 162 614T110 637V667H184L337 671L341 667Q303 629 286 546L197 102Q170 -30 98 -96T-72 -163L-78 -134Q-36 -127 3 -78T58 55Z" />
<glyph unicode="K" glyph-name="K" horiz-adv-x="653" d="M4 -3V34Q68 44 78 95L172 567Q181 602 174 614T122 637V667H196L349 671L353 667Q314 629 298 546L263 371H283Q303 382 317 395L527 586Q538 597 542 607T540 625T512 637V667H706L710 648Q668 644 582
566L392 392V377L539 101Q557 66 571 53T604 38L615 37L612 0H429L427 3Q430 29 387 109L275 318H252L210 104L194 45L273 36L269 3L4 -3Z" />
<glyph unicode="L" glyph-name="L" horiz-adv-x="536" d="M4 -3V34Q68 44 78 95L172 567Q181 602 174 614T122 637V667H196L349 671L353 667Q314 629 298 546L213 119L195 50H315Q369 50 396 73T482 188H521L453 0H147L4 -3Z" />
<glyph unicode="M" glyph-name="M" horiz-adv-x="873" d="M-5 -3V34Q58 42 70 96L181 569Q191 602 182 614T122 637V667H213L348 671L350 667Q353 620 360 575L413 247Q418 206 419 197L647 598L684 667H705L854 671L858 667Q820 624 807 541L740 104Q738 89 734
75T727 52L724 45L803 36L799 3L534 -3V34Q598 44 608 95L677 545L367 0L327 12L236 561Q232 549 227 529L125 96L110 42L194 36L191 3L-5 -3Z" />
<glyph unicode="N" glyph-name="N" horiz-adv-x="747" d="M4 -3V34Q69 42 79 96L167 541Q179 590 170 610T114 637V667H145L280 671Q285 648 304 619L554 234Q559 225 580 187L654 559Q665 592 655 610T597 634V667H787L789 653Q786 652 782 651T766 641T744 623T724
594T708 551L597 -5H556L245 475Q234 491 218 521L134 96L119 42L203 36L200 3L4 -3Z" />
<glyph unicode="O" glyph-name="O" horiz-adv-x="758" d="M45 283Q45 355 72 425T148 552T273 644T439 679Q577 679 657 600T738 392Q738 289 689 197T548 47T343 -12Q207 -12 126 71T45 283ZM184 279Q184 178 227 107T350 36Q415 36 472 86T564 218T598 392Q598
453 583 505T528 594T431 631Q360 631 302 577T214 443T184 279Z" />
<glyph unicode="P" glyph-name="P" horiz-adv-x="572" d="M4 -3V34Q68 44 78 95L170 558Q182 596 175 611T114 637V667H370Q416 667 455 658T527 630T577 578T596 501Q596 431 552 378T443 299T312 276V312Q383 323 420 371T457 487Q457 550 422 583T336 617H324L309
605L210 104L194 45L283 36L279 3L4 -3Z" />
<glyph unicode="Q" glyph-name="Q" horiz-adv-x="758" d="M116 -80Q301 -48 353 -12H343Q207 -12 126 71T45 283Q45 355 72 425T148 552T273 644T439 679Q578 679 658 600T738 389Q738 300 700 221T598 83T456 -18T292 -87Q403 -130 515 -130Q650 -130 749 -72L758
-102Q641 -229 481 -229Q410 -229 325 -202T116 -114V-80ZM184 279Q184 179 227 108T349 37Q448 37 523 144T598 391Q598 453 583 504T528 593T431 630Q360 630 302 576T214 442T184 279Z" />
<glyph unicode="R" glyph-name="R" horiz-adv-x="624" d="M4 -3V34Q68 44 78 95L170 558Q182 596 175 611T114 637V667H359Q476 667 532 624T589 516Q589 445 538 396T421 320V304L519 99Q536 64 550 53T586 38L596 37L592 0H414L410 3Q398 49 368 113L286 285H258L243
273L210 104L194 45L273 36L269 3L4 -3ZM256 335H303Q354 337 402 382T450 503Q450 551 422 584T341 617H324L309 605L256 335Z" />
<glyph unicode="S" glyph-name="S" horiz-adv-x="492" d="M13 82Q13 101 22 130T42 180L52 201H91Q91 173 92 156T99 113T118 74T155 48T214 37Q259 37 289 63T320 138Q320 175 296 208T238 269T170 325T112 393T88 479Q88 563 153 621T328 679Q381 679 503 660L458
494H419Q442 630 323 630Q274 630 238 604T202 533Q202 504 219 477T263 431T319 386T375 336T418 273T436 190Q436 93 367 41T199 -12Q125 -12 69 12T13 82Z" />
<glyph unicode="T" glyph-name="T" horiz-adv-x="610" d="M125 -3V34Q189 44 199 95L303 617H235Q184 617 151 592T85 494H46L90 673Q114 667 153 667H616Q633 667 650 668T676 672L685 673L640 494H601Q606 566 592 591T525 617H445L430 605L331 104L315 45L409
36L405 3L125 -3Z" />
<glyph unicode="U" glyph-name="U" horiz-adv-x="707" d="M78 195Q78 233 84 261L145 567Q153 603 145 615T95 637V667H169L322 671L326 667Q287 627 271 546L211 243Q204 208 204 180Q204 114 240 79T333 44Q407 44 473 97T561 256L621 558Q636 630 565 634V667H752L755
648Q748 645 737 639T705 608T678 551L616 240Q593 123 510 56T318 -12Q202 -12 140 42T78 195Z" />
<glyph unicode="V" glyph-name="V" horiz-adv-x="586" d="M207 3L105 582Q102 602 91 615T69 633L59 637V667H122L253 671L256 667Q229 618 236 575L294 209Q298 181 299 159L530 556Q549 585 544 604T501 637V667H665L669 653Q635 632 585 546L261 -9L207 3Z" />
<glyph unicode="W" glyph-name="W" horiz-adv-x="887" d="M545 3L470 427L256 -9L201 3L99 582Q95 602 84 615T62 633L53 637V667H116L245 671L248 667Q221 618 228 575L284 221Q286 209 288 175L455 515L443 582Q439 602 428 615T406 633L397 637V667H460L589
671L592 667Q565 618 572 575L628 224Q632 198 633 177L818 556Q835 587 831 605T789 637V667H951L955 653Q951 651 943 646T913 613T871 546L600 -9L545 3Z" />
<glyph unicode="X" glyph-name="X" horiz-adv-x="598" d="M-35 0V37Q21 43 45 74L256 319L134 593Q127 609 113 620T87 634L76 637V667H132L266 671L269 667Q256 624 269 595L348 411L492 578Q510 596 505 613T468 637V667H645L650 651Q615 642 573 590L371 357L512
41L556 33L553 0H507L328 -4V33Q353 37 362 46T363 73L280 265L89 44L173 35L170 0H-35Z" />
<glyph unicode="Y" glyph-name="Y" horiz-adv-x="549" d="M103 -3V34Q167 44 177 95L219 305L106 593Q99 610 89 621T70 634L63 637V667H110L241 671L244 667Q242 663 241 656T237 629T242 595L305 418Q309 407 322 359L486 580Q502 598 498 615T461 637V667H629L633
653Q597 642 560 591L349 306L309 104L293 45L372 36L368 3L103 -3Z" />
<glyph unicode="Z" glyph-name="Z" horiz-adv-x="584" d="M-19 -4L-24 32Q1 50 42 103L403 572Q409 580 441 617H280Q226 617 197 593T128 494H89L132 667H547L605 671L615 640Q590 618 548 564L189 95Q167 67 150 50H332Q386 50 413 73T499 188H538L470 0H39L-19 -4Z" />
<glyph unicode="[" glyph-name="bracketleft" horiz-adv-x="310" d="M60 -155L103 667H308L306 616H188L149 -104H267L265 -155H60Z" />
<glyph unicode="\" glyph-name="backslash" horiz-adv-x="393" d="M325 -196L38 667H113L401 -196H325Z" />
<glyph unicode="]" glyph-name="bracketright" horiz-adv-x="324" d="M7 -104H125L164 616H46L48 667H253L210 -155H5L7 -104Z" />
<glyph unicode="^" glyph-name="asciicircum" horiz-adv-x="550" d="M31 250L245 679H315L529 250H448L279 590L110 250H31Z" />
<glyph unicode="_" glyph-name="underscore" horiz-adv-x="515" d="M-59 -37H441V-96H-59V-37Z" />
<glyph unicode="`" glyph-name="grave" horiz-adv-x="500" d="M332 505L217 681V708L327 697L374 526L332 505Z" />
<glyph unicode="a" glyph-name="a" horiz-adv-x="510" d="M114 -12Q66 -12 37 26T7 133Q7 209 41 284T147 413T308 467Q334 467 381 461T447 455Q460 455 477 458L479 455Q464 425 447 347L403 149Q389 86 389 74Q389 51 410 51Q436 51 466 79L469 43Q411 -12
339 -12T267 53L274 107H272Q269 102 264 94T243 66T210 30T166 1T114 -12ZM175 73Q206 73 236 115T283 202T309 286L338 410Q319 424 296 424Q262 424 225 384T163 279T137 149Q137 73 175 73Z" />
<glyph unicode="b" glyph-name="b" horiz-adv-x="493" d="M10 1Q10 34 38 163L130 583Q139 623 139 634Q139 665 100 665H80V697Q131 703 189 718T275 746L278 743Q274 673 252 576L222 440L201 353H203Q206 358 211 365T235 392T271 427T315 454T367 467Q412
467 440 429T469 323Q469 266 451 209T398 101T306 20T177 -12Q162 -12 111 -5T14 -3L10 1ZM138 43Q159 31 184 31Q246 31 292 116T339 305Q339 382 304 382Q270 382 227 326T171 209L159 154L138 43Z" />
<glyph unicode="c" glyph-name="c" horiz-adv-x="413" d="M10 168Q10 236 43 304T141 420T284 467Q332 467 374 451T417 399Q417 381 404 367T371 352Q353 352 339 363T317 389T296 414T265 426Q215 426 175 355T135 204Q135 145 162 105T245 65Q270 65 297 76T340
100L355 111L359 76Q357 72 352 67T331 46T296 19T246 -2T181 -12Q101 -12 56 39T10 168Z" />
<glyph unicode="d" glyph-name="d" horiz-adv-x="516" d="M112 -12Q65 -12 35 26T5 133Q5 208 41 283T149 413T306 467Q325 467 355 463L381 583Q390 624 390 634Q390 665 351 665H331V697Q382 703 440 718T526 746L529 743Q525 677 503 576L406 137Q395 84 395
73Q395 51 414 51Q441 51 470 77L474 43Q467 37 456 28T410 4T342 -12Q306 -12 289 5T272 49L278 105H276Q273 100 268 92T246 64T211 29T166 1T112 -12ZM175 73Q214 73 254 135T315 286L337 386Q341 405 327 414T295 424Q243 424 189 336T135 152Q135 73 175 73Z"
/>
<glyph unicode="e" glyph-name="e" horiz-adv-x="414" d="M9 159Q9 231 44 301T144 419T285 467Q332 467 365 447T399 381Q399 340 370 306T294 251T214 219T146 201L134 188Q135 67 234 67Q265 67 295 79T340 103L355 115L358 83Q356 79 351 73T329 50T292 22T240
-1T173 -12Q91 -12 50 36T9 159ZM137 237Q200 251 240 283T281 381Q281 424 252 424Q215 424 181 368T137 237Z" />
<glyph unicode="f" glyph-name="f" horiz-adv-x="305" d="M32 392L35 434L103 456Q111 503 122 540T152 615T198 677T263 717T353 733Q401 733 432 719T464 675Q464 654 450 639T414 623Q388 623 357 654T307 685Q272 685 256 628T225 455H342L328 396H229L217
388Q207 299 197 236T170 96T131 -32T77 -131T1 -205T-99 -237L-108 -208Q17 -165 71 207Q76 239 94 392H32Z" />
<glyph unicode="g" glyph-name="g" horiz-adv-x="488" d="M50 -62H88Q76 -96 76 -128Q76 -198 131 -198Q198 -198 234 -107Q251 -63 259 13T271 105H269Q266 100 262 92T241 64T208 29T164 1T112 -12Q64 -12 35 27T5 133Q5 209 41 284T148 413T307 467Q332 467
377 461T441 455T474 458L476 455Q462 420 433 290T397 109Q397 105 394 79T389 40T381 -2T369 -50T352 -95T327 -140T295 -178T252 -209T198 -229T131 -237Q61 -237 23 -212T-16 -151Q-16 -135 -5 -118T15 -92T50 -62ZM175 73Q199 73 222 98T263 160T291 230T308
286L336 410Q316 424 294 424Q242 424 189 336T135 149Q135 73 175 73Z" />
<glyph unicode="h" glyph-name="h" horiz-adv-x="529" d="M10 -6Q10 39 35 152L131 583Q140 623 140 634Q140 665 101 665H81V697Q132 703 190 718T276 746L279 743Q275 673 253 576L225 441Q220 417 213 392T200 354L196 342H198Q232 394 280 430T379 467Q425
467 446 442T468 377Q468 341 441 218T413 75Q413 51 431 51Q441 51 455 57T478 70L488 77L492 43Q486 37 475 28T428 4T360 -12Q324 -12 305 5T285 53Q285 82 312 196T339 341Q339 379 308 379Q266 379 225 320T172 209L160 155Q140 63 137 2L10 -6Z" />
<glyph unicode="i" glyph-name="i" horiz-adv-x="281" d="M193 554Q164 554 147 569T129 610Q129 646 150 670T206 695Q236 695 253 679T270 636Q270 600 248 577T193 554ZM31 53Q31 80 63 215T95 371Q95 399 69 399H38V431Q91 436 148 450T231 479L234 476Q234
430 197 260T159 75Q159 51 177 51Q187 51 201 57T224 70L234 77L238 43Q232 37 221 28T174 4T106 -12Q70 -12 51 5T31 53Z" />
<glyph unicode="j" glyph-name="j" horiz-adv-x="262" d="M196 554Q167 554 150 569T132 610Q132 646 153 670T209 695Q239 695 256 679T273 636Q273 600 251 577T196 554ZM15 -19L92 328Q99 360 99 371Q99 399 73 399H40V431Q93 436 151 450T235 479L238 476Q234
411 212 312L154 50Q122 -92 50 -164T-128 -237L-134 -208Q-90 -202 -46 -148T15 -19Z" />
<glyph unicode="k" glyph-name="k" horiz-adv-x="495" d="M10 -6Q10 41 38 163L131 583Q140 623 140 634Q140 665 101 665H81V697Q132 703 190 718T276 746L279 743Q275 673 253 576L187 277H207L292 310Q361 337 361 381Q361 410 324 410H310V442L447 464L450
461Q454 452 454 429Q454 382 425 347T316 281L302 275V265Q316 241 338 184T380 91T419 56Q426 56 437 60T457 70L465 74L469 40Q404 -12 350 -12Q314 -12 288 15T250 77T221 161T192 235H177L160 157Q139 67 136 2L10 -6Z" />
<glyph unicode="l" glyph-name="l" horiz-adv-x="268" d="M16 50Q16 64 35 151L130 583Q139 623 139 634Q139 665 100 665H80V697Q131 703 189 718T275 746L278 743Q274 673 252 576L155 137Q144 90 144 74Q144 51 164 51Q174 51 192 60T219 77L223 43Q217 37
206 28T159 4T87 -12Q52 -12 34 6T16 50Z" />
<glyph unicode="m" glyph-name="m" horiz-adv-x="803" d="M27 -7Q27 40 63 200T99 371Q99 399 76 399H40V431Q181 451 233 479L236 476Q236 455 230 422T218 365L213 342H215Q248 395 294 431T391 467Q437 467 458 442T480 377L474 342H476Q509 394 556 430T653
467Q699 467 720 442T742 377Q742 341 715 218T687 75Q687 51 705 51Q715 51 729 57T752 70L762 77L766 43Q760 37 749 28T702 4T634 -12Q598 -12 579 5T559 53Q559 82 586 196T613 341Q613 379 582 379Q544 379 504 324T451 209L440 158Q420 68 416 2L289 -7Q289
45 320 177T351 341Q351 379 320 379Q283 379 243 324T189 209L178 158Q157 58 154 2L27 -7Z" />
<glyph unicode="n" glyph-name="n" horiz-adv-x="546" d="M27 -7Q27 40 63 200T99 371Q99 399 76 399H40V431Q181 451 233 479L236 476Q236 455 230 422T218 365L213 342H215Q249 394 297 430T396 467Q442 467 463 442T485 377Q485 341 458 218T430 75Q430 51
448 51Q458 51 472 57T496 70L505 77L509 43Q503 37 492 28T445 4T377 -12Q341 -12 322 5T302 53Q302 82 329 196T356 341Q356 379 325 379Q281 379 241 320T189 209L178 158Q158 68 154 2L27 -7Z" />
<glyph unicode="o" glyph-name="o" horiz-adv-x="504" d="M11 168Q11 218 29 269T80 365T170 438T294 467Q385 467 431 419T477 293Q477 244 459 192T407 94T317 18T194 -12Q105 -12 58 38T11 168ZM141 127Q141 29 198 29Q240 29 275 77T328 191T346 318Q346 426
287 426Q242 426 208 376T157 259T141 127Z" />
<glyph unicode="p" glyph-name="p" horiz-adv-x="510" d="M-2 -100L89 316Q99 360 99 371Q99 399 76 399H40V431Q181 451 233 479L236 476Q236 431 218 353H220Q223 358 228 365T251 392T287 427T331 454T383 467Q428 467 457 429T486 324Q486 267 468 209T415
101T323 20T195 -12Q171 -12 141 -8L120 -105Q119 -109 117 -120T113 -135T112 -147T113 -158T118 -165T127 -171T144 -173L185 -168L187 -203Q47 -217 -20 -246L-24 -242Q-20 -177 -2 -100ZM157 66Q152 49 168 40T204 31Q264 31 310 116T356 305Q356 382 321 382Q287
382 245 327T189 209L157 66Z" />
<glyph unicode="q" glyph-name="q" horiz-adv-x="499" d="M113 -12Q65 -12 35 26T5 134Q5 209 41 284T149 413T309 467Q340 467 384 461T448 455Q464 455 484 458L486 455Q469 416 435 263L354 -102Q344 -136 347 -154T378 -173L419 -168L421 -203Q281 -217 214
-246L210 -242Q215 -174 232 -96L253 1L276 102H274Q271 97 266 90T243 63T209 28T165 1T113 -12ZM175 73Q212 73 253 134T315 284L344 410Q323 424 298 424Q245 424 190 336T135 153Q135 73 175 73Z" />
<glyph unicode="r" glyph-name="r" horiz-adv-x="382" d="M27 -7Q27 40 63 200T99 371Q99 399 76 399H40V431Q181 451 233 479L236 476Q236 452 230 419T218 364L213 342H215Q289 467 349 467Q378 467 395 449T412 408T396 366T350 346Q338 346 323 353T294 360Q268
360 235 312T192 221L178 158Q156 62 154 2L27 -7Z" />
<glyph unicode="s" glyph-name="s" horiz-adv-x="362" d="M-19 36T-19 56T-7 89T30 103Q51 103 65 92T85 66T105 41T142 29Q169 29 188 46T208 89Q208 110 192 129T152 164T104 200T64 248T47 314Q47 380 96 423T235 467Q254 467 272 465T311 457T343 439T355
408Q355 388 342 374T307 360Q282 360 259 393T210 426Q187 426 166 409T145 368Q145 347 161 328T202 293T250 258T290 210T307 144Q307 78 258 33T123 -12Q102 -12 80 -9T35 1T-4 22Z" />
<glyph unicode="t" glyph-name="t" horiz-adv-x="354" d="M37 84Q37 103 41 122L84 327L100 392H41L45 434Q87 442 113 464Q137 501 149 557L245 579Q245 550 231 455H372L356 396H233L219 385L170 145Q166 123 166 114Q166 68 211 68Q232 68 256 79T295 101L309
112L314 77Q311 73 306 67T284 46T250 19T205 -2T150 -12Q94 -12 66 13T37 84Z" />
<glyph unicode="u" glyph-name="u" horiz-adv-x="541" d="M38 78Q38 119 65 237T92 371Q92 399 69 399H38V432Q178 452 226 479L229 476Q229 412 198 276T167 114Q167 76 198 76Q236 76 276 134T329 246Q360 393 363 444L491 462Q492 412 455 253T418 75Q418 51
436 51Q446 51 460 57T484 70L493 77L497 43Q491 37 480 28T433 4T365 -12Q295 -12 295 53Q295 64 297 78T301 100L303 108H301Q268 57 222 23T127 -12Q81 -12 60 13T38 78Z" />
<glyph unicode="v" glyph-name="v" horiz-adv-x="436" d="M123 -3Q86 108 65 360Q64 371 63 377T58 389T47 397T28 399H13V431Q56 437 116 452T194 479L197 476Q187 413 193 311T216 112Q331 258 356 342Q374 406 323 406V436L465 467L468 461Q396 261 220 46L176
-16L123 -3Z" />
<glyph unicode="w" glyph-name="w" horiz-adv-x="678" d="M118 -3Q86 102 65 360Q64 371 63 377T58 389T47 397T28 399H13V431Q56 437 116 452T194 479L197 476Q179 340 212 117Q253 177 287 241T319 332L317 360Q316 371 315 377T310 389T299 397T280 399H267V431Q310
438 369 453T446 479L449 476Q441 414 445 313T464 115Q570 252 596 338Q616 406 565 406V436L707 467L710 461Q640 264 467 46L423 -16L370 -3Q344 81 329 226Q273 123 218 46L174 -16L118 -3Z" />
<glyph unicode="x" glyph-name="x" horiz-adv-x="476" d="M23 -12Q2 -12 -11 -1T-24 30Q-24 48 -13 60T15 76Q21 77 33 77T51 80T71 90T100 114Q133 147 165 203Q132 301 106 362Q98 380 90 388T75 398T54 399H35V431Q124 443 193 479L196 476L252 311Q302 396
341 436Q371 467 403 467Q425 467 438 456T451 425Q451 387 411 379Q407 378 395 377T374 374T352 364T325 341Q294 306 268 266Q304 167 325 118Q340 82 350 68T372 54Q396 54 429 81L433 47Q426 40 414 31T368 5T303 -12Q270 -12 252 6T215 67Q204 93 181 157Q124
58 85 19Q54 -12 23 -12Z" />
<glyph unicode="y" glyph-name="y" horiz-adv-x="442" d="M-113 -190Q-113 -135 -46 -135Q24 -135 72 -87L80 -79Q109 -50 109 0Q109 92 99 211T73 373Q64 399 30 399H11V431Q147 455 187 479L191 477Q222 267 223 108Q285 200 327 278T369 382Q369 394 359 401T331
409V437L471 467L474 461Q461 427 421 354Q398 311 371 265T285 126T161 -52T35 -192Q-15 -237 -58 -237Q-83 -237 -98 -222T-113 -190Z" />
<glyph unicode="z" glyph-name="z" horiz-adv-x="429" d="M-9 0L-29 24Q11 53 44 91L273 351H184Q147 351 135 351T107 346T85 334T71 308L41 314L80 455H337Q357 455 373 457T396 461L403 463L417 437Q367 389 351 370L116 103Q185 92 227 92Q274 92 307 111T360
179H391Q371 86 337 37T237 -12Q209 -12 142 -1T51 11Q39 11 24 9T0 3L-9 0Z" />
<glyph unicode="{" glyph-name="braceleft" horiz-adv-x="339" d="M89 70Q89 241 -2 242V283Q24 284 45 296T80 332T104 379T120 437T129 492T134 544T138 581Q157 741 365 741L366 700Q340 698 321 693T289 682T265 663T250 640T241 609T234 573T229 528Q226
501 224 485T215 437T200 383T177 335T142 291T95 264V262Q133 247 159 197T185 57Q185 30 182 -15T178 -79Q178 -133 201 -156T289 -185L280 -226Q184 -226 132 -193T80 -83Q80 -68 84 -16T89 70Z" />
<glyph unicode="|" glyph-name="bar" horiz-adv-x="292" d="M99 -225V749H184V-225H99Z" />
<glyph unicode="}" glyph-name="braceright" horiz-adv-x="334" d="M100 -13Q126 223 235 262V264Q144 296 144 460Q144 485 147 529T150 592Q150 648 127 671T40 700L49 741Q249 741 249 595Q249 582 245 532T240 449Q240 284 332 283V242Q301 241 277 222T240
177T216 110T203 43T196 -22T191 -66Q181 -153 124 -189T-35 -226L-36 -185Q-16 -183 0 -180T28 -173T50 -160T66 -146T78 -127T86 -106T92 -78T96 -49T100 -13Z" />
<glyph unicode="~" glyph-name="asciitilde" horiz-adv-x="569" d="M51 168Q51 253 87 295T188 337Q227 337 257 321T302 285T339 250T387 233Q425 233 440 264T455 333H527Q527 248 491 206T390 164Q358 164 333 174T292 200T262 231T230 257T191 268Q153 268
138 237T123 168H51Z" />
</font>
</defs>
</svg>
